<mxfile host="app.diagrams.net" agent="Mozilla/5.0 (Windows NT 10.0; Win64; x64) AppleWebKit/537.36 (KHTML, like Gecko) Chrome/137.0.0.0 Safari/537.36" version="27.1.6">
  <diagram name="Page-1" id="c4acf3e9-155e-7222-9cf6-157b1a14988f">
    <mxGraphModel dx="184" dy="662" grid="1" gridSize="10" guides="1" tooltips="1" connect="1" arrows="1" fold="1" page="1" pageScale="1" pageWidth="850" pageHeight="1100" background="none" math="0" shadow="0">
      <root>
        <mxCell id="0" />
        <mxCell id="1" parent="0" />
        <mxCell id="3hO7NIABI-S0P5XUoeGX-1" value="Employee" style="swimlane;whiteSpace=wrap;html=1;startSize=20;" vertex="1" parent="1">
          <mxGeometry x="200" y="80" width="160" height="120" as="geometry" />
        </mxCell>
        <mxCell id="3hO7NIABI-S0P5XUoeGX-2" value="PK" style="text;html=1;align=center;verticalAlign=middle;whiteSpace=wrap;rounded=0;" vertex="1" parent="3hO7NIABI-S0P5XUoeGX-1">
          <mxGeometry y="20" width="40" height="20" as="geometry" />
        </mxCell>
        <mxCell id="3hO7NIABI-S0P5XUoeGX-4" value="String" style="text;html=1;align=center;verticalAlign=middle;whiteSpace=wrap;rounded=0;" vertex="1" parent="3hO7NIABI-S0P5XUoeGX-1">
          <mxGeometry x="40" y="20" width="40" height="20" as="geometry" />
        </mxCell>
        <mxCell id="3hO7NIABI-S0P5XUoeGX-6" value="ID" style="text;html=1;align=center;verticalAlign=middle;whiteSpace=wrap;rounded=0;" vertex="1" parent="3hO7NIABI-S0P5XUoeGX-1">
          <mxGeometry x="100" y="20" width="50" height="20" as="geometry" />
        </mxCell>
        <mxCell id="3hO7NIABI-S0P5XUoeGX-8" value="String" style="text;html=1;align=center;verticalAlign=middle;whiteSpace=wrap;rounded=0;" vertex="1" parent="3hO7NIABI-S0P5XUoeGX-1">
          <mxGeometry x="40" y="40" width="40" height="20" as="geometry" />
        </mxCell>
        <mxCell id="3hO7NIABI-S0P5XUoeGX-11" value="FirstName" style="text;html=1;align=center;verticalAlign=middle;whiteSpace=wrap;rounded=0;" vertex="1" parent="3hO7NIABI-S0P5XUoeGX-1">
          <mxGeometry x="90" y="40" width="70" height="20" as="geometry" />
        </mxCell>
        <mxCell id="3hO7NIABI-S0P5XUoeGX-12" value="LastName" style="text;html=1;align=center;verticalAlign=middle;whiteSpace=wrap;rounded=0;" vertex="1" parent="3hO7NIABI-S0P5XUoeGX-1">
          <mxGeometry x="90" y="60" width="70" height="20" as="geometry" />
        </mxCell>
        <mxCell id="3hO7NIABI-S0P5XUoeGX-13" value="String" style="text;html=1;align=center;verticalAlign=middle;whiteSpace=wrap;rounded=0;" vertex="1" parent="3hO7NIABI-S0P5XUoeGX-1">
          <mxGeometry x="40" y="60" width="40" height="20" as="geometry" />
        </mxCell>
        <mxCell id="3hO7NIABI-S0P5XUoeGX-14" value="Date" style="text;html=1;align=center;verticalAlign=middle;whiteSpace=wrap;rounded=0;" vertex="1" parent="3hO7NIABI-S0P5XUoeGX-1">
          <mxGeometry x="40" y="80" width="40" height="20" as="geometry" />
        </mxCell>
        <mxCell id="3hO7NIABI-S0P5XUoeGX-15" value="String" style="text;html=1;align=center;verticalAlign=middle;whiteSpace=wrap;rounded=0;" vertex="1" parent="3hO7NIABI-S0P5XUoeGX-1">
          <mxGeometry x="40" y="100" width="40" height="20" as="geometry" />
        </mxCell>
        <mxCell id="3hO7NIABI-S0P5XUoeGX-16" value="Birth num" style="text;html=1;align=center;verticalAlign=middle;whiteSpace=wrap;rounded=0;" vertex="1" parent="3hO7NIABI-S0P5XUoeGX-1">
          <mxGeometry x="90" y="100" width="70" height="20" as="geometry" />
        </mxCell>
        <mxCell id="3hO7NIABI-S0P5XUoeGX-29" value="Birth day" style="text;html=1;align=center;verticalAlign=middle;whiteSpace=wrap;rounded=0;" vertex="1" parent="3hO7NIABI-S0P5XUoeGX-1">
          <mxGeometry x="90" y="80" width="67.5" height="20" as="geometry" />
        </mxCell>
        <mxCell id="3hO7NIABI-S0P5XUoeGX-10" value="max 10" style="text;html=1;align=center;verticalAlign=middle;whiteSpace=wrap;rounded=0;strokeColor=#666666;fillColor=#f5f5f5;fontColor=#333333;" vertex="1" parent="1">
          <mxGeometry x="400" y="80" width="50" height="20" as="geometry" />
        </mxCell>
        <mxCell id="3hO7NIABI-S0P5XUoeGX-33" value="City" style="swimlane;whiteSpace=wrap;html=1;startSize=20;" vertex="1" parent="1">
          <mxGeometry x="520" y="280" width="160" height="120" as="geometry" />
        </mxCell>
        <mxCell id="3hO7NIABI-S0P5XUoeGX-34" value="PK" style="text;html=1;align=center;verticalAlign=middle;whiteSpace=wrap;rounded=0;" vertex="1" parent="3hO7NIABI-S0P5XUoeGX-33">
          <mxGeometry y="20" width="40" height="20" as="geometry" />
        </mxCell>
        <mxCell id="3hO7NIABI-S0P5XUoeGX-35" value="int" style="text;html=1;align=center;verticalAlign=middle;whiteSpace=wrap;rounded=0;" vertex="1" parent="3hO7NIABI-S0P5XUoeGX-33">
          <mxGeometry x="40" y="20" width="40" height="20" as="geometry" />
        </mxCell>
        <mxCell id="3hO7NIABI-S0P5XUoeGX-36" value="ID" style="text;html=1;align=center;verticalAlign=middle;whiteSpace=wrap;rounded=0;" vertex="1" parent="3hO7NIABI-S0P5XUoeGX-33">
          <mxGeometry x="90" y="20" width="70" height="20" as="geometry" />
        </mxCell>
        <mxCell id="3hO7NIABI-S0P5XUoeGX-37" value="int" style="text;html=1;align=center;verticalAlign=middle;whiteSpace=wrap;rounded=0;" vertex="1" parent="3hO7NIABI-S0P5XUoeGX-33">
          <mxGeometry x="35" y="40" width="50" height="20" as="geometry" />
        </mxCell>
        <mxCell id="3hO7NIABI-S0P5XUoeGX-38" value="Width" style="text;html=1;align=center;verticalAlign=middle;whiteSpace=wrap;rounded=0;" vertex="1" parent="3hO7NIABI-S0P5XUoeGX-33">
          <mxGeometry x="90" y="40" width="70" height="20" as="geometry" />
        </mxCell>
        <mxCell id="3hO7NIABI-S0P5XUoeGX-39" value="Height" style="text;html=1;align=center;verticalAlign=middle;whiteSpace=wrap;rounded=0;" vertex="1" parent="3hO7NIABI-S0P5XUoeGX-33">
          <mxGeometry x="90" y="60" width="70" height="20" as="geometry" />
        </mxCell>
        <mxCell id="3hO7NIABI-S0P5XUoeGX-40" value="int" style="text;html=1;align=center;verticalAlign=middle;whiteSpace=wrap;rounded=0;" vertex="1" parent="3hO7NIABI-S0P5XUoeGX-33">
          <mxGeometry x="40" y="60" width="40" height="20" as="geometry" />
        </mxCell>
        <mxCell id="3hO7NIABI-S0P5XUoeGX-41" value="String" style="text;html=1;align=center;verticalAlign=middle;whiteSpace=wrap;rounded=0;" vertex="1" parent="3hO7NIABI-S0P5XUoeGX-33">
          <mxGeometry x="40" y="80" width="40" height="20" as="geometry" />
        </mxCell>
        <mxCell id="3hO7NIABI-S0P5XUoeGX-42" value="String" style="text;html=1;align=center;verticalAlign=middle;whiteSpace=wrap;rounded=0;" vertex="1" parent="3hO7NIABI-S0P5XUoeGX-33">
          <mxGeometry x="40" y="100" width="40" height="20" as="geometry" />
        </mxCell>
        <mxCell id="3hO7NIABI-S0P5XUoeGX-43" value="Name" style="text;html=1;align=center;verticalAlign=middle;whiteSpace=wrap;rounded=0;" vertex="1" parent="3hO7NIABI-S0P5XUoeGX-33">
          <mxGeometry x="90" y="100" width="70" height="20" as="geometry" />
        </mxCell>
        <mxCell id="3hO7NIABI-S0P5XUoeGX-44" value="StateName" style="text;html=1;align=center;verticalAlign=middle;whiteSpace=wrap;rounded=0;" vertex="1" parent="3hO7NIABI-S0P5XUoeGX-33">
          <mxGeometry x="90" y="80" width="67.5" height="20" as="geometry" />
        </mxCell>
        <mxCell id="3hO7NIABI-S0P5XUoeGX-45" value="CP" style="swimlane;whiteSpace=wrap;html=1;startSize=20;" vertex="1" parent="1">
          <mxGeometry x="200" y="280" width="170" height="120" as="geometry" />
        </mxCell>
        <mxCell id="3hO7NIABI-S0P5XUoeGX-46" value="PK" style="text;html=1;align=center;verticalAlign=middle;whiteSpace=wrap;rounded=0;" vertex="1" parent="3hO7NIABI-S0P5XUoeGX-45">
          <mxGeometry y="20" width="40" height="20" as="geometry" />
        </mxCell>
        <mxCell id="3hO7NIABI-S0P5XUoeGX-47" value="int" style="text;html=1;align=center;verticalAlign=middle;whiteSpace=wrap;rounded=0;" vertex="1" parent="3hO7NIABI-S0P5XUoeGX-45">
          <mxGeometry x="40" y="20" width="40" height="20" as="geometry" />
        </mxCell>
        <mxCell id="3hO7NIABI-S0P5XUoeGX-48" value="ID" style="text;html=1;align=center;verticalAlign=middle;whiteSpace=wrap;rounded=0;" vertex="1" parent="3hO7NIABI-S0P5XUoeGX-45">
          <mxGeometry x="90" y="20" width="70" height="20" as="geometry" />
        </mxCell>
        <mxCell id="3hO7NIABI-S0P5XUoeGX-49" value="Date" style="text;html=1;align=center;verticalAlign=middle;whiteSpace=wrap;rounded=0;" vertex="1" parent="3hO7NIABI-S0P5XUoeGX-45">
          <mxGeometry x="35" y="40" width="50" height="20" as="geometry" />
        </mxCell>
        <mxCell id="3hO7NIABI-S0P5XUoeGX-50" value="DateOfCreation" style="text;html=1;align=center;verticalAlign=middle;whiteSpace=wrap;rounded=0;" vertex="1" parent="3hO7NIABI-S0P5XUoeGX-45">
          <mxGeometry x="90" y="40" width="70" height="20" as="geometry" />
        </mxCell>
        <mxCell id="3hO7NIABI-S0P5XUoeGX-53" value="DateTime" style="text;html=1;align=center;verticalAlign=middle;whiteSpace=wrap;rounded=0;" vertex="1" parent="3hO7NIABI-S0P5XUoeGX-45">
          <mxGeometry x="40" y="60" width="40" height="20" as="geometry" />
        </mxCell>
        <mxCell id="3hO7NIABI-S0P5XUoeGX-54" value="DateTime" style="text;html=1;align=center;verticalAlign=middle;whiteSpace=wrap;rounded=0;" vertex="1" parent="3hO7NIABI-S0P5XUoeGX-45">
          <mxGeometry x="40" y="80" width="40" height="20" as="geometry" />
        </mxCell>
        <mxCell id="3hO7NIABI-S0P5XUoeGX-55" value="EndTime" style="text;html=1;align=center;verticalAlign=middle;whiteSpace=wrap;rounded=0;" vertex="1" parent="3hO7NIABI-S0P5XUoeGX-45">
          <mxGeometry x="90" y="80" width="70" height="20" as="geometry" />
        </mxCell>
        <mxCell id="3hO7NIABI-S0P5XUoeGX-56" value="StartTime" style="text;html=1;align=center;verticalAlign=middle;whiteSpace=wrap;rounded=0;" vertex="1" parent="3hO7NIABI-S0P5XUoeGX-45">
          <mxGeometry x="90" y="60" width="67.5" height="20" as="geometry" />
        </mxCell>
        <mxCell id="3hO7NIABI-S0P5XUoeGX-84" value="State" style="text;html=1;align=center;verticalAlign=middle;whiteSpace=wrap;rounded=0;" vertex="1" parent="3hO7NIABI-S0P5XUoeGX-45">
          <mxGeometry x="90" y="100" width="70" height="20" as="geometry" />
        </mxCell>
        <mxCell id="3hO7NIABI-S0P5XUoeGX-85" value="String" style="text;html=1;align=center;verticalAlign=middle;whiteSpace=wrap;rounded=0;" vertex="1" parent="3hO7NIABI-S0P5XUoeGX-45">
          <mxGeometry x="35" y="100" width="50" height="20" as="geometry" />
        </mxCell>
        <mxCell id="3hO7NIABI-S0P5XUoeGX-57" value="" style="endArrow=none;html=1;rounded=0;" edge="1" parent="1">
          <mxGeometry width="50" height="50" relative="1" as="geometry">
            <mxPoint x="280" y="280" as="sourcePoint" />
            <mxPoint x="280" y="200" as="targetPoint" />
          </mxGeometry>
        </mxCell>
        <mxCell id="3hO7NIABI-S0P5XUoeGX-59" value="Participant" style="text;html=1;align=center;verticalAlign=middle;whiteSpace=wrap;rounded=0;" vertex="1" parent="1">
          <mxGeometry x="280" y="230" width="60" height="20" as="geometry" />
        </mxCell>
        <mxCell id="3hO7NIABI-S0P5XUoeGX-60" value="1" style="text;html=1;align=center;verticalAlign=middle;whiteSpace=wrap;rounded=0;" vertex="1" parent="1">
          <mxGeometry x="280" y="200" width="20" height="20" as="geometry" />
        </mxCell>
        <mxCell id="3hO7NIABI-S0P5XUoeGX-61" value="1..N" style="text;html=1;align=center;verticalAlign=middle;whiteSpace=wrap;rounded=0;" vertex="1" parent="1">
          <mxGeometry x="280" y="260" width="30" height="20" as="geometry" />
        </mxCell>
        <mxCell id="3hO7NIABI-S0P5XUoeGX-62" value="" style="endArrow=none;html=1;rounded=0;entryX=0;entryY=1;entryDx=0;entryDy=0;" edge="1" parent="1" target="3hO7NIABI-S0P5XUoeGX-34">
          <mxGeometry width="50" height="50" relative="1" as="geometry">
            <mxPoint x="370" y="320" as="sourcePoint" />
            <mxPoint x="360" y="240" as="targetPoint" />
          </mxGeometry>
        </mxCell>
        <mxCell id="3hO7NIABI-S0P5XUoeGX-63" value="Started" style="text;html=1;align=center;verticalAlign=middle;whiteSpace=wrap;rounded=0;" vertex="1" parent="1">
          <mxGeometry x="420" y="300" width="60" height="20" as="geometry" />
        </mxCell>
        <mxCell id="3hO7NIABI-S0P5XUoeGX-64" value="1" style="text;html=1;align=center;verticalAlign=middle;whiteSpace=wrap;rounded=0;" vertex="1" parent="1">
          <mxGeometry x="500" y="300" width="20" height="20" as="geometry" />
        </mxCell>
        <mxCell id="3hO7NIABI-S0P5XUoeGX-66" value="1..N" style="text;html=1;align=center;verticalAlign=middle;whiteSpace=wrap;rounded=0;" vertex="1" parent="1">
          <mxGeometry x="370" y="300" width="30" height="20" as="geometry" />
        </mxCell>
        <mxCell id="3hO7NIABI-S0P5XUoeGX-67" value="" style="endArrow=none;html=1;rounded=0;entryX=0;entryY=1;entryDx=0;entryDy=0;" edge="1" parent="1">
          <mxGeometry width="50" height="50" relative="1" as="geometry">
            <mxPoint x="370" y="349.65999999999997" as="sourcePoint" />
            <mxPoint x="520" y="349.65999999999997" as="targetPoint" />
          </mxGeometry>
        </mxCell>
        <mxCell id="3hO7NIABI-S0P5XUoeGX-68" value="Ended" style="text;html=1;align=center;verticalAlign=middle;whiteSpace=wrap;rounded=0;" vertex="1" parent="1">
          <mxGeometry x="420" y="329.65999999999997" width="60" height="20" as="geometry" />
        </mxCell>
        <mxCell id="3hO7NIABI-S0P5XUoeGX-69" value="1" style="text;html=1;align=center;verticalAlign=middle;whiteSpace=wrap;rounded=0;" vertex="1" parent="1">
          <mxGeometry x="500" y="329.65999999999997" width="20" height="20" as="geometry" />
        </mxCell>
        <mxCell id="3hO7NIABI-S0P5XUoeGX-70" value="1..N" style="text;html=1;align=center;verticalAlign=middle;whiteSpace=wrap;rounded=0;" vertex="1" parent="1">
          <mxGeometry x="370" y="329.65999999999997" width="30" height="20" as="geometry" />
        </mxCell>
        <mxCell id="3hO7NIABI-S0P5XUoeGX-71" value="Vehicle" style="swimlane;whiteSpace=wrap;html=1;startSize=20;" vertex="1" parent="1">
          <mxGeometry x="200" y="480" width="170" height="70" as="geometry" />
        </mxCell>
        <mxCell id="3hO7NIABI-S0P5XUoeGX-72" value="PK" style="text;html=1;align=center;verticalAlign=middle;whiteSpace=wrap;rounded=0;" vertex="1" parent="3hO7NIABI-S0P5XUoeGX-71">
          <mxGeometry y="20" width="40" height="20" as="geometry" />
        </mxCell>
        <mxCell id="3hO7NIABI-S0P5XUoeGX-73" value="int" style="text;html=1;align=center;verticalAlign=middle;whiteSpace=wrap;rounded=0;" vertex="1" parent="3hO7NIABI-S0P5XUoeGX-71">
          <mxGeometry x="40" y="20" width="40" height="20" as="geometry" />
        </mxCell>
        <mxCell id="3hO7NIABI-S0P5XUoeGX-74" value="ID" style="text;html=1;align=center;verticalAlign=middle;whiteSpace=wrap;rounded=0;" vertex="1" parent="3hO7NIABI-S0P5XUoeGX-71">
          <mxGeometry x="90" y="20" width="70" height="20" as="geometry" />
        </mxCell>
        <mxCell id="3hO7NIABI-S0P5XUoeGX-75" value="String" style="text;html=1;align=center;verticalAlign=middle;whiteSpace=wrap;rounded=0;" vertex="1" parent="3hO7NIABI-S0P5XUoeGX-71">
          <mxGeometry x="35" y="40" width="50" height="20" as="geometry" />
        </mxCell>
        <mxCell id="3hO7NIABI-S0P5XUoeGX-76" value="Name" style="text;html=1;align=center;verticalAlign=middle;whiteSpace=wrap;rounded=0;" vertex="1" parent="3hO7NIABI-S0P5XUoeGX-71">
          <mxGeometry x="90" y="40" width="70" height="20" as="geometry" />
        </mxCell>
        <mxCell id="3hO7NIABI-S0P5XUoeGX-86" value="" style="endArrow=none;html=1;rounded=0;" edge="1" parent="1">
          <mxGeometry width="50" height="50" relative="1" as="geometry">
            <mxPoint x="282.15999999999997" y="400" as="sourcePoint" />
            <mxPoint x="282.15999999999997" y="480" as="targetPoint" />
          </mxGeometry>
        </mxCell>
        <mxCell id="3hO7NIABI-S0P5XUoeGX-87" value="" style="endArrow=classic;html=1;rounded=0;strokeColor=#5E5E5E;exitX=1;exitY=0.5;exitDx=0;exitDy=0;endFill=1;" edge="1" parent="1" source="3hO7NIABI-S0P5XUoeGX-84">
          <mxGeometry width="50" height="50" relative="1" as="geometry">
            <mxPoint x="380" y="380" as="sourcePoint" />
            <mxPoint x="430" y="440" as="targetPoint" />
          </mxGeometry>
        </mxCell>
        <mxCell id="3hO7NIABI-S0P5XUoeGX-88" value="Defined according assignment" style="rounded=0;whiteSpace=wrap;html=1;fillColor=#f5f5f5;fontColor=#333333;strokeColor=#666666;" vertex="1" parent="1">
          <mxGeometry x="430" y="440" width="120" height="30" as="geometry" />
        </mxCell>
        <mxCell id="3hO7NIABI-S0P5XUoeGX-89" value="" style="endArrow=classic;html=1;rounded=0;strokeColor=#5E5E5E;exitX=1;exitY=0.5;exitDx=0;exitDy=0;endFill=1;entryX=0;entryY=1;entryDx=0;entryDy=0;" edge="1" parent="1" source="3hO7NIABI-S0P5XUoeGX-6" target="3hO7NIABI-S0P5XUoeGX-10">
          <mxGeometry width="50" height="50" relative="1" as="geometry">
            <mxPoint x="460" y="370" as="sourcePoint" />
            <mxPoint x="530" y="400" as="targetPoint" />
          </mxGeometry>
        </mxCell>
        <mxCell id="3hO7NIABI-S0P5XUoeGX-90" value="Transport" style="text;html=1;align=center;verticalAlign=middle;whiteSpace=wrap;rounded=0;" vertex="1" parent="1">
          <mxGeometry x="280" y="430" width="60" height="20" as="geometry" />
        </mxCell>
        <mxCell id="3hO7NIABI-S0P5XUoeGX-91" value="1..N" style="text;html=1;align=center;verticalAlign=middle;whiteSpace=wrap;rounded=0;" vertex="1" parent="1">
          <mxGeometry x="280" y="460" width="30" height="20" as="geometry" />
        </mxCell>
        <mxCell id="3hO7NIABI-S0P5XUoeGX-92" value="1..N" style="text;html=1;align=center;verticalAlign=middle;whiteSpace=wrap;rounded=0;" vertex="1" parent="1">
          <mxGeometry x="280" y="400" width="30" height="20" as="geometry" />
        </mxCell>
      </root>
    </mxGraphModel>
  </diagram>
</mxfile>
